<!DOCTYPE svg PUBLIC "-//W3C//DTD SVG 1.1//EN" "http://www.w3.org/Graphics/SVG/1.1/DTD/svg11.dtd">
<!-- Uploaded to: SVG Repo, www.svgrepo.com, Transformed by: SVG Repo Mixer Tools -->
<svg width="256px" height="256px" viewBox="0 0 91 91" enable-background="new 0 0 91 91" id="Layer_1" version="1.1" xml:space="preserve" xmlns="http://www.w3.org/2000/svg" xmlns:xlink="http://www.w3.org/1999/xlink" fill="#000000">
<g id="SVGRepo_bgCarrier" stroke-width="0"/>
<g id="SVGRepo_tracerCarrier" stroke-linecap="round" stroke-linejoin="round"/>
<g id="SVGRepo_iconCarrier"> <g> <path d="M85.713,12.142H5.861c-2.305,0-4.174-1.869-4.174-4.176c0-2.305,1.869-4.174,4.174-4.174h79.852 c2.305,0,4.174,1.869,4.174,4.174C89.887,10.273,88.018,12.142,85.713,12.142z" fill="#FFF"/> <path d="M85.713,49.858H5.861c-2.305,0-4.174-1.869-4.174-4.175c0-2.307,1.869-4.176,4.174-4.176h79.852 c2.305,0,4.174,1.869,4.174,4.176C89.887,47.989,88.018,49.858,85.713,49.858z" fill="#FFF"/> <path d="M85.713,87.571H5.861c-2.305,0-4.174-1.869-4.174-4.176s1.869-4.176,4.174-4.176h79.852 c2.305,0,4.174,1.869,4.174,4.176S88.018,87.571,85.713,87.571z" fill="#FFF"/> </g> </g>
</svg>